HIERARCHY
ROOT root
{
  OFFSET 0 98.6856 0
  CHANNELS 6 Xposition Yposition Zposition Zrotation Xrotation Yrotation
  JOINT torso_1
  {
    OFFSET 0 5.37224 -1.21793
    CHANNELS 6 Xposition Yposition Zposition Zrotation Xrotation Yrotation
    JOINT torso_2
    {
      OFFSET 0 5.94127 1.13336
      CHANNELS 6 Xposition Yposition Zposition Zrotation Xrotation Yrotation
      JOINT torso_3
      {
        OFFSET -1.08535e-17 6.33601 0.121658
        CHANNELS 6 Xposition Yposition Zposition Zrotation Xrotation Yrotation
        JOINT torso_4
        {
          OFFSET -1.16841e-17 6.88189 -0.46916
          CHANNELS 6 Xposition Yposition Zposition Zrotation Xrotation Yrotation
          JOINT torso_5
          {
            OFFSET -2.08699e-17 8.0451 -1.59297
            CHANNELS 6 Xposition Yposition Zposition Zrotation Xrotation Yrotation
            JOINT torso_6
            {
              OFFSET -2.67949e-17 10.0463 -0.967353
              CHANNELS 6 Xposition Yposition Zposition Zrotation Xrotation Yrotation
              JOINT torso_7
              {
                OFFSET -3.07187e-17 11.1612 1.66806
                CHANNELS 6 Xposition Yposition Zposition Zrotation Xrotation Yrotation
                JOINT neck_1
                {
                  OFFSET -1.36661e-17 5.06312 0.756688
                  CHANNELS 6 Xposition Yposition Zposition Zrotation Xrotation Yrotation
                  JOINT neck_2
                  {
                    OFFSET -1.91632e-17 5.09976 0.446172
                    CHANNELS 6 Xposition Yposition Zposition Zrotation Xrotation Yrotation
                    JOINT head
                    {
                      OFFSET -2.12574e-17 5.10962 0.809285
                      CHANNELS 6 Xposition Yposition Zposition Zrotation Xrotation Yrotation
                      End Site
                      {
                        OFFSET 0 0.1 0
                      }
                    }
                  }
                }
                JOINT l_shoulder
                {
                  OFFSET 1.30426 -8.04703 7.96922
                  CHANNELS 6 Xposition Yposition Zposition Zrotation Xrotation Yrotation
                  JOINT l_up_arm
                  {
                    OFFSET 13.7035 3.43734 -3.45766
                    CHANNELS 6 Xposition Yposition Zposition Zrotation Xrotation Yrotation
                    JOINT l_low_arm
                    {
                      OFFSET 30.8964 0.0632652 0.14496
                      CHANNELS 6 Xposition Yposition Zposition Zrotation Xrotation Yrotation
                      JOINT l_hand
                      {
                        OFFSET 25.6348 0.0524902 0.120274
                        CHANNELS 6 Xposition Yposition Zposition Zrotation Xrotation Yrotation
                        End Site
                        {
                          OFFSET 0.1 0 0
                        }
                      }
                    }
                  }
                }
                JOINT r_shoulder
                {
                  OFFSET -1.30426 -8.04702 7.96912
                  CHANNELS 6 Xposition Yposition Zposition Zrotation Xrotation Yrotation
                  JOINT r_up_arm
                  {
                    OFFSET -13.7035 3.43734 -3.45766
                    CHANNELS 6 Xposition Yposition Zposition Zrotation Xrotation Yrotation
                    JOINT r_low_arm
                    {
                      OFFSET -30.8964 0.0632652 0.14496
                      CHANNELS 6 Xposition Yposition Zposition Zrotation Xrotation Yrotation
                      JOINT r_hand
                      {
                        OFFSET -25.6348 0.0524901 0.120274
                        CHANNELS 6 Xposition Yposition Zposition Zrotation Xrotation Yrotation
                        End Site
                        {
                          OFFSET -0.1 0 0
                        }
                      }
                    }
                  }
                }
              }
            }
          }
        }
      }
    }
  }
  JOINT l_up_leg
  {
    OFFSET 9.77065 -4.44866 2.1502
    CHANNELS 6 Xposition Yposition Zposition Zrotation Xrotation Yrotation
    JOINT l_low_leg
    {
      OFFSET -0.901622 -41.0132 -0.693059
      CHANNELS 6 Xposition Yposition Zposition Zrotation Xrotation Yrotation
      JOINT l_foot
      {
        OFFSET -2.46068 -42.7371 -6.39839
        CHANNELS 6 Xposition Yposition Zposition Zrotation Xrotation Yrotation
        JOINT l_toes
        {
          OFFSET 0.82413 -10.4558 13.2182
          CHANNELS 6 Xposition Yposition Zposition Zrotation Xrotation Yrotation
          End Site
          {
            OFFSET 0 0 0.1
          }
        }
      }
    }
  }
  JOINT r_up_leg
  {
    OFFSET -9.77065 -4.44866 2.1502
    CHANNELS 6 Xposition Yposition Zposition Zrotation Xrotation Yrotation
    JOINT r_low_leg
    {
      OFFSET 0.901622 -41.0132 -0.693059
      CHANNELS 6 Xposition Yposition Zposition Zrotation Xrotation Yrotation
      JOINT r_foot
      {
        OFFSET 2.46068 -42.7371 -6.39839
        CHANNELS 6 Xposition Yposition Zposition Zrotation Xrotation Yrotation
        JOINT r_toes
        {
          OFFSET -0.82413 -10.4558 13.2182
          CHANNELS 6 Xposition Yposition Zposition Zrotation Xrotation Yrotation
          End Site
          {
            OFFSET 0 0 0.1
          }
        }
      }
    }
  }
}
MOTION
Frames:4
Frame Time:0.020000
-68.298 99.2826 -42.1283 0.89485 3.78596 -1.29478 0 5.37224 -1.21793 -0.735605 -0.373889 -0.254781 0 5.94127 1.13336 -0.57054 -0.299579 -0.396601 -1.08535e-17 6.33601 0.121658 -0.281497 -0.228171 -0.361315 -1.16841e-17 6.88189 -0.46916 0.0184593 -0.30724 -0.372768 -2.08699e-17 8.0451 -1.59297 0.269121 -0.22995 -0.395571 -2.67949e-17 10.0463 -0.967353 0.388112 -0.477215 -0.61349 -3.07187e-17 11.1612 1.66806 0.00382109 0.136597 -0.0081408 -1.36661e-17 5.06312 0.756688 1.05773 -1.07741 0.697102 -1.91632e-17 5.09976 0.446172 0.515935 3.83083 -0.191069 -2.12574e-17 5.10962 0.809285 1.58722 8.72954 -3.00083 1.30426 -8.04703 7.96922 0.920858 2.99389 -2.12797 13.7035 3.43734 -3.45766 -88.5148 13.4136 3.37913 30.8964 0.0632652 0.14496 1.63597 -0.104447 -7.90786 25.6348 0.0524902 0.120274 -2.07613 -15.3575 -5.0994 -1.30426 -8.04702 7.96912 2.49533 5.3037 2.65673 -13.7035 3.43734 -3.45766 82.7275 17.1593 3.0071 -30.8964 0.0632652 0.14496 -1.45033 -0.0812723 7.00586 -25.6348 0.0524901 0.120274 1.37885 -15.2611 1.90499 9.77065 -4.44866 2.1502 0.963859 -3.12652 -16.4079 -0.901622 -41.0132 -0.693059 -0.532018 1.9868 -0.025456 -2.46068 -42.7371 -6.39839 2.05425 1.97156 14.7369 0.82413 -10.4558 13.2182 7.03686e-16 -7.70695e-16 -1.20197e-17 -9.77065 -4.44866 2.1502 -2.07321 -3.49712 19.9665 0.901622 -41.0132 -0.693059 0.49166 1.83602 0.0241711 2.46068 -42.7371 -6.39839 -0.940892 0.181175 -15.0644 -0.82413 -10.4558 13.2182 -9.93923e-16 -5.46658e-16 -1.27222e-14 
-68.3015 99.2613 -42.143 0.88856 3.75606 -1.31321 0 5.37224 -1.21793 -0.736924 -0.389455 -0.252184 0 5.94127 1.13336 -0.572945 -0.308283 -0.393641 -1.08535e-17 6.33601 0.121658 -0.284393 -0.22961 -0.358422 -1.16841e-17 6.88189 -0.46916 0.0151431 -0.296064 -0.369745 -2.08699e-17 8.0451 -1.59297 0.266148 -0.214114 -0.39203 -2.67949e-17 10.0463 -0.967353 0.386921 -0.457241 -0.609146 -3.07187e-17 11.1612 1.66806 0.00380041 0.136498 -0.00812473 -1.36661e-17 5.06312 0.756688 1.05479 -1.11886 0.693539 -1.91632e-17 5.09976 0.446172 0.522966 3.82124 -0.191962 -2.12574e-17 5.10962 0.809285 1.59217 8.73323 -2.98932 1.30426 -8.04703 7.96922 0.865521 2.98818 -2.15153 13.7035 3.43734 -3.45766 -88.4537 13.3311 3.30939 30.8964 0.0632652 0.14496 1.62733 -0.103296 -7.86587 25.6348 0.0524902 0.120274 -2.0638 -15.2952 -5.10301 -1.30426 -8.04702 7.96912 2.55525 5.30714 2.66817 -13.7035 3.43734 -3.45766 82.6842 17.18 3.03546 -30.8964 0.0632652 0.14496 -1.4435 -0.0804712 6.97273 -25.6348 0.0524901 0.120274 1.37264 -15.3095 1.91465 9.77065 -4.44866 2.1502 0.966615 -3.0855 -16.4019 -0.901622 -41.0132 -0.693059 -0.529752 1.97833 -0.0253866 -2.46068 -42.7371 -6.39839 2.08308 1.89313 14.74 0.82413 -10.4558 13.2182 3.44932e-16 -7.81502e-16 2.79358e-18 -9.77065 -4.44866 2.1502 -2.0538 -3.45401 19.9444 0.901622 -41.0132 -0.693059 0.484358 1.80874 0.0239272 2.46068 -42.7371 -6.39839 -0.978451 0.120456 -15.063 -0.82413 -10.4558 13.2182 -2.24662e-16 -5.7871e-16 -1.27583e-14 
-68.3057 99.2399 -42.1595 0.895215 3.72532 -1.33971 0 5.37224 -1.21793 -0.741249 -0.406775 -0.246959 0 5.94127 1.13336 -0.578344 -0.318119 -0.388104 -1.08535e-17 6.33601 0.121658 -0.289811 -0.231189 -0.352856 -1.16841e-17 6.88189 -0.46916 0.00970029 -0.283152 -0.363966 -2.08699e-17 8.0451 -1.59297 0.262203 -0.195787 -0.385454 -2.67949e-17 10.0463 -0.967353 0.386462 -0.433969 -0.601898 -3.07187e-17 11.1612 1.66806 0.00380699 0.136387 -0.00807866 -1.36661e-17 5.06312 0.756688 1.05105 -1.15663 0.686011 -1.91632e-17 5.09976 0.446172 0.531558 3.81122 -0.194407 -2.12574e-17 5.10962 0.809285 1.60011 8.74081 -2.98016 1.30426 -8.04703 7.96922 0.811999 2.98131 -2.17407 13.7035 3.43734 -3.45766 -88.3904 13.2802 3.24057 30.8964 0.0632652 0.14496 1.62089 -0.102442 -7.83458 25.6348 0.0524902 0.120274 -2.05508 -15.2513 -5.10501 -1.30426 -8.04702 7.96912 2.61567 5.30936 2.67978 -13.7035 3.43734 -3.45766 82.6476 17.1992 3.06154 -30.8964 0.0632652 0.14496 -1.43685 -0.0796949 6.94046 -25.6348 0.0524901 0.120274 1.3598 -15.3579 1.91312 9.77065 -4.44866 2.1502 0.957543 -3.04296 -16.3948 -0.901622 -41.0132 -0.693059 -0.526324 1.96552 -0.025281 -2.46068 -42.7371 -6.39839 2.1084 1.82446 14.7426 0.82413 -10.4558 13.2182 -1.28416e-15 -8.49246e-16 7.49486e-17 -9.77065 -4.44866 2.1502 -2.04825 -3.40277 19.9281 0.901622 -41.0132 -0.693059 0.472686 1.76514 0.0235301 2.46068 -42.7371 -6.39839 -1.01434 0.0550016 -15.0622 -0.82413 -10.4558 13.2182 7.50441e-16 -6.18004e-16 -1.2806e-14 
-68.3112 99.2201 -42.1769 0.903938 3.69082 -1.37972 0 5.37224 -1.21793 -0.744982 -0.426584 -0.239563 0 5.94127 1.13336 -0.583556 -0.329714 -0.380056 -1.08535e-17 6.33601 0.121658 -0.295128 -0.233379 -0.34468 -1.16841e-17 6.88189 -0.46916 0.00418239 -0.269023 -0.355449 -2.08699e-17 8.0451 -1.59297 0.258678 -0.175007 -0.376182 -2.67949e-17 10.0463 -0.967353 0.387243 -0.407177 -0.592229 -3.07187e-17 11.1612 1.66806 0.00383321 0.136282 -0.00800052 -1.36661e-17 5.06312 0.756688 1.0469 -1.19252 0.672832 -1.91632e-17 5.09976 0.446172 0.543534 3.80576 -0.199326 -2.12574e-17 5.10962 0.809285 1.60286 8.74871 -2.96772 1.30426 -8.04703 7.96922 0.756939 2.97182 -2.19428 13.7035 3.43734 -3.45766 -88.3272 13.2278 3.17274 30.8964 0.0632652 0.14496 1.61468 -0.101622 -7.80439 25.6348 0.0524902 0.120274 -2.04123 -15.1987 -5.09871 -1.30426 -8.04702 7.96912 2.68401 5.31173 2.69133 -13.7035 3.43734 -3.45766 82.6098 17.2031 3.09144 -30.8964 0.0632652 0.14496 -1.42835 -0.0787073 6.89919 -25.6348 0.0524901 0.120274 1.34011 -15.3917 1.90253 9.77065 -4.44866 2.1502 0.947797 -3.00457 -16.3776 -0.901622 -41.0132 -0.693059 -0.526612 1.9666 -0.0252899 -2.46068 -42.7371 -6.39839 2.1352 1.76139 14.7441 0.82413 -10.4558 13.2182 -3.60812e-16 -8.16385e-16 3.36699e-17 -9.77065 -4.44866 2.1502 -2.04312 -3.35306 19.9332 0.901622 -41.0132 -0.693059 0.46197 1.72511 0.0231578 2.46068 -42.7371 -6.39839 -1.05107 -0.00417698 -15.0607 -0.82413 -10.4558 13.2182 -8.52775e-16 -5.51069e-16 -1.2735e-14 
